<svg xmlns="http://www.w3.org/2000/svg" viewBox="0 0 29 28">
<symbol id="floppy">
  <path fill="currentColor" d="M0 0h3v3H0zm0 3h3v3H0zm0 3h3v3H0zm0 3h3v3H0zm0 3h3v3H0zm0 3h3v3H0zm0 3h3v3H0zm0 3h3v3H0zm0 3h3v3H0zm0 3h3v3H0zm0 3h3v3H0zm0 3h3v3H0zm0 3h3v3H0zM33 0v3h-3V0z"/>
  <path fill="currentColor" d="M30.0032 0v3h-3V0zm-3.0034 0v3h-3V0zm-3 0v3h-3V0zM20.999 0v3h-3V0z"/>
  <path fill="currentColor" d="M17.9998 0v3h-3V0zM14.999 0v3h-3V0z"/>
  <path fill="currentColor" d="M12 0v3H9V0zM8.996 0v3h-3V0z"/>
  <path fill="currentColor" d="M6 0v3H3V0zm30.0007 3v3h-3V3zM8.996 6v3h-3V6zm0-3v3h-3V3zm0 6v3h-3V9zm21.0072-3v3h-3V6zm0-3v3h-3V3zm0 6v3h-3V9zm-6.0034-3v3h-3V6zm0-3v3h-3V3zm0 6v3h-3V9zm6.0034 3v3h-3v-3zm-3.0034 0v3h-3v-3zm-3 0v3h-3v-3zm-3.0008 0v3h-3v-3z"/>
  <path fill="currentColor" d="M17.9998 12v3h-3v-3zm-3.0008 0v3h-3v-3z"/>
  <path fill="currentColor" d="M12 12v3H9v-3zm-3.004 0v3h-3v-3zM33 21v3h-3v-3z"/>
  <path fill="currentColor" d="M30.0032 21v3h-3v-3zm-3.0034 0v3h-3v-3zm-3 0v3h-3v-3zm-3.0008 0v3h-3v-3z"/>
  <path fill="currentColor" d="M17.9998 21v3h-3v-3zm-3.0008 0v3h-3v-3z"/>
  <path fill="currentColor" d="M12 21v3H9v-3zm-3.004 0v3h-3v-3zM33 24v3h-3v-3zM8.996 24v3h-3v-3zM33 27v3h-3v-3zM8.996 27v3h-3v-3zM33 30v3h-3v-3zM8.996 30v3h-3v-3zm0 3v3h-3v-3zM33 33v3h-3v-3zm3.0007 3v3h-3v-3zM33 36v3h-3v-3z"/>
  <path fill="currentColor" d="M30.0032 36v3h-3v-3zm-3.0034 0v3h-3v-3zm-3 0v3h-3v-3zm-3.0008 0v3h-3v-3z"/>
  <path fill="currentColor" d="M17.9998 36v3h-3v-3zm-3.0008 0v3h-3v-3z"/>
  <path fill="currentColor" d="M12 36v3H9v-3zm-3.004 0v3h-3v-3z"/>
  <path fill="currentColor" d="M6 36v3H3v-3zm33 3h-3v-3h3zm0-3h-3v-3h3zm0-3h-3v-3h3zm0-3h-3v-3h3zm0-3h-3v-3h3zm0-3h-3v-3h3zm0-3h-3v-3h3zm0-3h-3v-3h3zm0-3h-3v-3h3zm0-3h-3V9h3zm0-3h-3V6h3z"/>
</symbol>
</svg>